<svg width="180" height="172" viewBox="0 0 180 172" fill="none" xmlns="http://www.w3.org/2000/svg">
<g clip-path="url(#clip0_46_77)">
<path d="M162.098 166.634C162.78 166.676 163.156 165.833 162.641 165.341L162.589 165.138C162.596 165.122 162.603 165.106 162.61 165.09C163.299 163.453 165.635 163.464 166.319 165.103C166.925 166.558 167.698 168.016 167.888 169.554C167.973 170.233 167.935 170.925 167.783 171.591C169.205 168.499 169.953 165.123 169.953 161.728C169.953 160.874 169.906 160.021 169.81 159.17C169.731 158.474 169.623 157.783 169.482 157.097C168.721 153.392 167.074 149.863 164.698 146.915C163.556 146.293 162.603 145.321 162.028 144.156C161.821 143.736 161.659 143.284 161.582 142.824C161.712 142.841 162.072 140.869 161.974 140.748C162.156 140.475 162.48 140.339 162.678 140.071C163.662 138.743 165.017 138.975 165.725 140.78C167.237 141.54 167.251 142.8 166.324 144.012C165.734 144.783 165.652 145.827 165.135 146.652C165.188 146.72 165.243 146.786 165.297 146.854C166.274 148.101 167.119 149.443 167.831 150.852C167.63 149.286 167.927 147.399 168.433 146.183C169.01 144.797 170.091 143.63 171.043 142.433C172.187 140.994 174.532 141.622 174.733 143.446C174.735 143.463 174.737 143.481 174.739 143.499C174.598 143.578 174.459 143.662 174.324 143.752C173.552 144.26 173.819 145.451 174.733 145.592L174.754 145.595C174.703 146.102 174.615 146.605 174.488 147.1C175.709 151.803 173.072 153.517 169.307 153.593C169.224 153.636 169.143 153.678 169.06 153.719C169.441 154.788 169.746 155.885 169.972 156.997C170.174 157.98 170.315 158.973 170.394 159.97C170.492 161.229 170.483 162.494 170.377 163.75L170.383 163.705C170.654 162.322 171.408 161.029 172.504 160.134C174.135 158.799 176.441 158.307 178.201 157.235C179.048 156.718 180.134 157.385 179.986 158.364L179.979 158.411C179.717 158.517 179.461 158.64 179.214 158.778C179.073 158.857 178.934 158.942 178.799 159.031C178.027 159.539 178.294 160.731 179.208 160.871L179.229 160.874C179.244 160.877 179.257 160.879 179.272 160.881C178.822 161.944 178.196 162.931 177.411 163.782C176.648 167.888 173.368 168.277 169.859 167.082H169.857C169.473 168.745 168.913 170.371 168.193 171.92H162.247C162.226 171.854 162.207 171.786 162.187 171.721C162.737 171.754 163.291 171.723 163.833 171.623C163.391 171.084 162.95 170.541 162.509 170.002C162.499 169.991 162.49 169.98 162.482 169.97C162.258 169.694 162.032 169.42 161.808 169.144L161.808 169.144C161.794 168.297 161.896 167.453 162.098 166.634Z" fill="#F2F2F2"/>
<path d="M52.708 171.609C52.708 171.826 52.8829 172 53.1006 172H179.561C179.779 172 179.954 171.826 179.954 171.609C179.954 171.392 179.779 171.218 179.561 171.218H53.1007C52.8829 171.218 52.708 171.392 52.708 171.609Z" fill="#CCCCCC"/>
<path d="M71.8972 171.833H13.6886C6.59109 171.833 0.816772 166.083 0.816772 159.015V34.4429C0.816772 27.375 6.59109 21.6248 13.6886 21.6248H71.8972C78.9946 21.6248 84.7689 27.375 84.7689 34.4429V159.015C84.7689 166.083 78.9946 171.833 71.8972 171.833Z" fill="#3F3D56"/>
<path d="M84.7689 67.4466C84.4686 67.4466 84.2244 67.6898 84.2244 67.9889V85.3415C84.2244 85.6405 84.4686 85.8837 84.7689 85.8837C85.0692 85.8837 85.3134 85.6405 85.3134 85.3415V67.9889C85.3134 67.6898 85.0692 67.4466 84.7689 67.4466Z" fill="#3F3D56"/>
<path d="M83.5438 34.443V159.013C83.5438 165.165 78.7355 170.197 72.6557 170.588H72.653C72.5631 170.593 72.4733 170.599 72.3807 170.601C72.2201 170.609 72.0594 170.612 71.8961 170.612C71.8961 170.612 71.2971 170.569 70.2025 170.487C69.0971 170.406 67.488 170.284 65.4814 170.124C64.8797 170.078 64.2453 170.027 63.5755 169.972C62.2413 169.864 60.7765 169.745 59.2055 169.609C58.5793 169.557 57.9313 169.501 57.2697 169.444C53.8881 169.154 50.1008 168.815 46.1066 168.43C45.4314 168.367 44.7507 168.302 44.0646 168.234C43.8849 168.215 43.7024 168.199 43.52 168.18C40.6721 167.901 2.04211 160.466 2.04211 159.013V34.443C2.04211 28.0361 7.2561 22.8439 13.6899 22.8439H20.6437C21.7545 22.8439 22.6476 23.7061 22.7429 24.8096C22.751 24.8828 22.7592 24.956 22.7728 25.0292C22.9743 26.1382 23.9953 26.9109 25.1279 26.9109H60.458C61.5906 26.9109 62.6116 26.1382 62.8131 25.0292C62.8267 24.956 62.8349 24.8828 62.8431 24.8096C62.9384 23.7061 63.8314 22.8439 64.9423 22.8439H71.8961C78.3298 22.8439 83.5438 28.0361 83.5438 34.443Z" fill="white"/>
<path d="M0.54454 54.4321C0.244217 54.4321 0 54.6753 0 54.9744V59.3125C0 59.6116 0.244221 59.8548 0.54454 59.8548C0.844859 59.8548 1.08908 59.6116 1.08908 59.3125V54.9744C1.08908 54.6753 0.844859 54.4321 0.54454 54.4321Z" fill="#3F3D56"/>
<path d="M0.54454 67.4466C0.244217 67.4466 0 67.6898 0 67.9889V76.394C0 76.6931 0.244221 76.9363 0.54454 76.9363C0.844859 76.9363 1.08908 76.6931 1.08908 76.394V67.9889C1.08908 67.6898 0.844859 67.4466 0.54454 67.4466Z" fill="#3F3D56"/>
<path d="M0.54454 79.3765C0.244217 79.3765 0 79.6197 0 79.9188V88.3239C0 88.623 0.244221 88.8662 0.54454 88.8662C0.844859 88.8662 1.08908 88.623 1.08908 88.3239V79.9188C1.08908 79.6197 0.844859 79.3765 0.54454 79.3765Z" fill="#3F3D56"/>
<path d="M20.4541 24.7429H10.0402C9.98369 24.7429 9.93787 24.7885 9.93787 24.8448V25.9966C9.93787 26.0529 9.98369 26.0986 10.0402 26.0986H20.4541C20.5106 26.0986 20.5564 26.0529 20.5564 25.9966V24.8448C20.5564 24.7885 20.5106 24.7429 20.4541 24.7429Z" fill="#E6E6E6"/>
<path d="M66.6629 26.0986C67.2644 26.0986 67.752 25.613 67.752 25.014C67.752 24.4151 67.2644 23.9295 66.6629 23.9295C66.0614 23.9295 65.5739 24.4151 65.5739 25.014C65.5739 25.613 66.0614 26.0986 66.6629 26.0986Z" fill="#E6E6E6"/>
<path d="M69.6579 26.0986C70.2594 26.0986 70.747 25.613 70.747 25.014C70.747 24.4151 70.2594 23.9295 69.6579 23.9295C69.0564 23.9295 68.5688 24.4151 68.5688 25.014C68.5688 25.613 69.0564 26.0986 69.6579 26.0986Z" fill="#E6E6E6"/>
<path d="M72.6529 26.0986C73.2544 26.0986 73.7419 25.613 73.7419 25.014C73.7419 24.4151 73.2544 23.9295 72.6529 23.9295C72.0514 23.9295 71.5638 24.4151 71.5638 25.014C71.5638 25.613 72.0514 26.0986 72.6529 26.0986Z" fill="#E6E6E6"/>
<path d="M65.7521 98.0796H19.5613C18.8336 98.0796 18.2416 97.49 18.2416 96.7653C18.2416 96.0407 18.8336 95.4511 19.5613 95.4511H65.7521C66.4798 95.4511 67.0718 96.0407 67.0718 96.7653C67.0718 97.49 66.4798 98.0796 65.7521 98.0796Z" fill="#E6E6E6"/>
<path d="M42.8224 149.006C53.391 149.006 61.9586 140.474 61.9586 129.95C61.9586 119.425 53.391 110.893 42.8224 110.893C32.2538 110.893 23.6862 119.425 23.6862 129.95C23.6862 140.474 32.2538 149.006 42.8224 149.006Z" fill="#1DA1F2"/>
<path d="M45.8637 123.728C44.2487 123.794 42.423 123.904 41.2293 125.138C40.1923 126.21 39.965 127.801 41.0166 128.946C42.071 130.093 43.7104 130.249 44.9258 131.144C46.3529 132.195 46.1439 134.275 44.7628 135.271C43.1343 136.446 41.0316 135.898 39.5427 134.78C39.1612 134.494 38.7909 135.135 39.1681 135.419C40.502 136.42 42.2426 136.978 43.8919 136.498C45.3804 136.066 46.5342 134.857 46.6515 133.285C46.7076 132.535 46.4933 131.773 46.0248 131.181C45.5303 130.556 44.8179 130.171 44.0978 129.858C42.8581 129.319 40.7236 128.621 41.084 126.867C41.5209 124.74 44.1207 124.538 45.8637 124.467C46.3397 124.447 46.3422 123.708 45.8637 123.728Z" fill="white"/>
<path d="M42.8677 122.721L42.7965 138.95C42.7944 139.426 43.5368 139.426 43.5389 138.95L43.61 122.721C43.6121 122.246 42.8698 122.245 42.8677 122.721Z" fill="white"/>
<path d="M144.21 0H49.8615C46.4005 0 43.5862 2.80259 43.5862 6.24915V70.6333C43.5862 74.0798 46.4005 76.8824 49.8615 76.8824H144.21C147.671 76.8824 150.485 74.0798 150.485 70.6333V6.24915C150.485 2.80259 147.671 0 144.21 0Z" fill="white"/>
<path d="M96.6017 38.2821C102.433 38.2821 107.16 33.5749 107.16 27.7683C107.16 21.9617 102.433 17.2545 96.6017 17.2545C90.7708 17.2545 86.0438 21.9617 86.0438 27.7683C86.0438 33.5749 90.7708 38.2821 96.6017 38.2821Z" fill="#1DA1F2"/>
<path d="M98.6045 23.0765C97.2977 23.1301 95.8264 23.2126 94.8378 24.1812C94.0189 24.9834 93.7325 26.2324 94.485 27.177C95.2773 28.1715 96.5949 28.3602 97.6291 28.9958C98.2719 29.3908 98.6979 29.9892 98.7117 30.7582C98.7246 31.4783 98.391 32.1509 97.8332 32.6022C96.4646 33.7093 94.5982 33.251 93.3035 32.2828C93.0487 32.0922 92.8018 32.5199 93.0537 32.7083C94.126 33.5102 95.5066 33.976 96.8409 33.6309C98.0691 33.3133 99.0585 32.3512 99.1916 31.0655C99.3318 29.7105 98.4384 28.7878 97.2798 28.2585C96.2209 27.7747 94.3635 27.2591 94.5386 25.756C94.7612 23.8449 97.1106 23.6306 98.6045 23.5693C98.9219 23.5563 98.9235 23.0634 98.6045 23.0765Z" fill="white"/>
<path d="M96.3334 22.1828L96.2741 35.7056C96.2727 36.0228 96.7676 36.0232 96.769 35.7056L96.8283 22.1828C96.8297 21.8656 96.3348 21.8652 96.3334 22.1828Z" fill="white"/>
<path d="M144.21 0H49.8615C46.4005 0 43.5862 2.80259 43.5862 6.24915V70.6333C43.5862 74.0798 46.4005 76.8824 49.8615 76.8824H144.21C147.671 76.8824 150.485 74.0798 150.485 70.6333V6.24915C150.485 2.80259 147.671 0 144.21 0ZM149.825 70.6333C149.825 73.7184 147.308 76.2253 144.21 76.2253H49.8615C46.7635 76.2253 44.2461 73.7184 44.2461 70.6333V6.24915C44.2461 3.16401 46.7634 0.657115 49.8615 0.657115H144.21C147.308 0.657115 149.825 3.16401 149.825 6.24915V70.6333Z" fill="#3F3D56"/>
<path d="M86.1576 6.35757H76.8996C76.4344 6.35757 76.055 6.73542 76.055 7.19868C76.055 7.66523 76.4344 8.04308 76.8996 8.04308H86.1576C86.6228 8.04308 87.0022 7.66523 87.0022 7.19868C87.0022 6.73543 86.6228 6.35757 86.1576 6.35757Z" fill="#E6E6E6"/>
<path d="M101.665 6.35757H92.4065C91.9413 6.35757 91.5619 6.73542 91.5619 7.19868C91.5619 7.66523 91.9413 8.04308 92.4065 8.04308H101.665C102.13 8.04308 102.509 7.66523 102.509 7.19868C102.509 6.73543 102.13 6.35757 101.665 6.35757Z" fill="#E6E6E6"/>
<path d="M117.171 6.35757H107.913C107.448 6.35757 107.069 6.73542 107.069 7.19868C107.069 7.66523 107.448 8.04308 107.913 8.04308H117.171C117.637 8.04308 118.016 7.66523 118.016 7.19868C118.016 6.73543 117.637 6.35757 117.171 6.35757Z" fill="#E6E6E6"/>
<path d="M132.441 44.1962H61.6303C58.684 44.1962 56.2886 46.5815 56.2886 49.5155V54.319C56.2886 57.253 58.684 59.6384 61.6303 59.6384H132.441C135.387 59.6384 137.782 57.253 137.782 54.319V49.5155C137.782 46.5815 135.387 44.1962 132.441 44.1962Z" fill="#1DA1F2"/>
<path d="M24.1443 69.4872L21.429 68.2063C22.5427 69.7541 23.5024 72.1714 24.0162 74.0949C24.886 72.3031 26.2883 70.1108 27.6764 68.8012L24.8066 69.5364C26.5749 60.9059 33.2262 54.71 40.8428 54.71V54.0529C32.887 54.0529 25.9499 60.5082 24.1443 69.4872Z" fill="#3F3D56"/>
<path d="M36.642 82.6374H19.4854C18.7577 82.6374 18.1656 82.0478 18.1656 81.3231C18.1656 80.5985 18.7577 80.0089 19.4854 80.0089H36.642C37.3697 80.0089 37.9617 80.5985 37.9617 81.3231C37.9617 82.0478 37.3697 82.6374 36.642 82.6374Z" fill="#E6E6E6"/>
<path d="M150.773 78.357L150.6 91.7749L147.247 103.736L144.567 102.741L145.757 91.7769L145.601 76.9402L150.773 78.357Z" fill="#FFB6B6"/>
<path d="M147.236 105.665C147.55 103.945 146.974 102.4 145.948 102.214C144.923 102.028 143.837 103.272 143.522 104.992C143.208 106.712 143.784 108.257 144.81 108.443C145.835 108.628 146.921 107.385 147.236 105.665Z" fill="#FFB6B6"/>
<path d="M146.705 62.3804C146.705 62.3804 152.448 62.4591 152.443 65.4972C152.44 67.2126 152.07 82.787 151.041 92.2483C150.247 99.5445 148.731 101.448 148.731 101.448L145.102 93.234L146.705 62.3804Z" fill="#E6E6E6"/>
<path d="M146.557 89.7943H127.161C128.787 86.1817 129.786 82.7411 128.224 80.0044L146.557 78.9461C145.641 82.6405 145.529 86.2662 146.557 89.7943Z" fill="#FFB6B6"/>
<path d="M144.166 57.7788L136.46 57.2496L133.272 61.2185L131.656 61.5112C129.233 61.9499 127.507 64.1031 127.616 66.5531L128.244 80.7838L146.661 82.1212L151.074 63.5898L145.76 61.4831L144.166 57.7788Z" fill="#E6E6E6"/>
<path d="M97.1758 62.0717C97.7224 62.5614 98.1127 63.1335 98.3188 63.6884L103.823 68.0262L101.673 70.5738L96.3216 65.8992C95.7458 65.7536 95.1334 65.4274 94.5867 64.9376C93.3378 63.8188 92.905 62.2703 93.6199 61.4789C94.3349 60.6874 95.9269 60.9528 97.1758 62.0717Z" fill="#FFB6B6"/>
<path d="M136.087 65.7235L114.999 79.9039L99.8825 69.4282L102.152 65.3343L114.049 72.2198L125.021 63.8303C128.928 60.1757 133.825 60.8841 136.087 65.7235Z" fill="#E6E6E6"/>
<path d="M139.856 56.0612C143.013 56.0612 145.573 53.5126 145.573 50.3686C145.573 47.2247 143.013 44.6761 139.856 44.6761C136.699 44.6761 134.14 47.2247 134.14 50.3686C134.14 53.5126 136.699 56.0612 139.856 56.0612Z" fill="#FFB6B6"/>
<path d="M147.626 48.9701V50.074L141.179 48.267L136.346 49.2756C136.289 48.543 136.072 47.8234 135.709 47.186C135.961 48.2083 135.99 48.9992 135.722 49.4071L135.072 49.5418C134.966 49.2559 134.762 49.0062 134.495 48.8551C134.468 48.8387 134.435 48.8255 134.406 48.8354C134.359 48.8518 134.356 48.9109 134.356 48.9569C134.363 49.2001 134.369 49.4432 134.379 49.6863L132.512 50.074V48.9701C130.72 44.9558 135.442 41.4822 140.071 41.4461C142.159 41.4299 144.046 42.2872 145.415 43.6474C146.781 45.011 147.626 46.8903 147.626 48.9701Z" fill="#2F2E41"/>
<path d="M151.253 61.9147L150.766 61.8746C150.801 61.716 150.835 61.5595 150.867 61.4009C151.137 60.0704 150.543 58.3767 150.499 57.0983C150.27 58.4489 150.662 60.1106 150.256 61.3929C150.211 61.5354 148.45 62.4549 148.401 62.5954C146.452 61.8853 144.421 59.6167 142.122 60.9417C140.762 61.7254 139.211 61.3819 137.667 61.0231C137.285 60.9343 137.232 59.0551 136.854 58.9812C136.176 58.849 135.182 60.5573 134.544 60.624L137.184 50.4387C137.184 44.8979 136.668 39.0846 143.716 41.0439C145.489 41.5366 147.243 41.9229 148.552 43.3798C149.86 44.8387 150.792 46.8777 151.122 49.1995C151.321 50.6003 152.563 55.3564 151.253 61.9147Z" fill="#2F2E41"/>
<path d="M146.701 164.338L143.555 164.412L141.801 150.335L146.444 150.226L146.701 164.338Z" fill="#FFB7B7"/>
<path d="M135.906 170.875C135.906 171.404 136.284 171.833 136.749 171.833H142.994C142.994 171.833 143.609 169.373 146.115 168.314L146.288 171.833H149.509L149.119 166.175C149.119 166.175 149.981 163.148 148.191 161.6C146.401 160.053 147.851 160.268 147.851 160.268L147.147 156.766L142.278 157.336L142.243 162.834L139.88 168.291L136.415 169.995C136.106 170.147 135.906 170.493 135.906 170.875Z" fill="#2F2E41"/>
<path d="M137.129 162.044L134.104 162.911L128.821 149.738L133.284 148.459L137.129 162.044Z" fill="#FFB7B7"/>
<path d="M128.353 171.095C128.488 171.607 128.962 171.927 129.412 171.809L135.453 170.231C135.453 170.231 135.421 167.696 137.575 166.039L138.639 169.399L141.755 168.585L139.935 163.21C139.935 163.21 139.998 160.064 137.872 159.02C135.746 157.975 137.204 157.817 137.204 157.817L135.63 154.608L131.066 156.389L132.433 161.716L131.538 167.591L128.62 170.116C128.36 170.34 128.255 170.725 128.353 171.095Z" fill="#2F2E41"/>
<path d="M144.772 88.9627L146.752 89.6198C149.847 95.3124 151.159 102.872 150.985 111.987L147.469 152.929H141.716L137.506 107.318L130.082 124.438L135.514 152.929L130.082 153.481L119.142 123.854L126.761 89.4209L144.772 88.9627Z" fill="#2F2E41"/>
</g>
<defs>
<clipPath id="clip0_46_77">
<rect width="180" height="172" fill="white"/>
</clipPath>
</defs>
</svg>
