<svg width="172" height="160" viewBox="0 0 172 160" fill="none" xmlns="http://www.w3.org/2000/svg">
<path d="M84.2632 4.50826C78.444 0.177636 71.1289 -1.10715 64.1818 0.976561L17.1892 15.074C7.5082 17.9801 1 26.7203 1 36.8317V137.271C1 144.523 4.3365 151.165 10.1551 155.489C15.9748 159.82 23.2979 161.104 30.237 159.021L65.3172 148.494C64.2202 144.876 63.6645 141.101 63.6645 137.271V91.6567C63.6645 82.0782 67.1578 72.93 73.5172 65.9125C78.1848 60.7429 84.2397 56.9291 91.0066 54.8928L93.4188 54.2038V22.7337C93.4188 15.481 90.0823 8.83942 84.2627 4.50826H84.2632Z" fill="#FBFBFB"/>
<path d="M28.7852 86V56.9091H40.433C42.5731 56.9091 44.3582 57.2263 45.7881 57.8608C47.218 58.4953 48.2928 59.3759 49.0125 60.5028C49.7322 61.6203 50.0921 62.9081 50.0921 64.3665C50.0921 65.5028 49.8648 66.5019 49.4102 67.3636C48.9557 68.2159 48.3307 68.9167 47.5352 69.4659C46.7493 70.0057 45.8496 70.3892 44.8364 70.6165V70.9006C45.9443 70.9479 46.9813 71.2604 47.9472 71.8381C48.9226 72.4157 49.7133 73.2254 50.3193 74.267C50.9254 75.2992 51.2284 76.5303 51.2284 77.9602C51.2284 79.5038 50.8449 80.8816 50.0779 82.0938C49.3203 83.2964 48.1981 84.2481 46.7114 84.9489C45.2246 85.6496 43.3923 86 41.2142 86H28.7852ZM34.9358 80.9716H39.95C41.664 80.9716 42.914 80.6449 43.7 79.9915C44.486 79.3286 44.879 78.4479 44.879 77.3494C44.879 76.5445 44.6849 75.8343 44.2966 75.2188C43.9084 74.6032 43.3544 74.1203 42.6347 73.7699C41.9244 73.4195 41.0769 73.2443 40.0921 73.2443H34.9358V80.9716ZM34.9358 69.0824H39.4955C40.3383 69.0824 41.0864 68.9356 41.7398 68.642C42.4027 68.339 42.9235 67.9129 43.3023 67.3636C43.6905 66.8144 43.8847 66.1562 43.8847 65.3892C43.8847 64.3381 43.5106 63.4905 42.7625 62.8466C42.0239 62.2027 40.9727 61.8807 39.6091 61.8807H34.9358V69.0824Z" fill="#1DA1F2"/>
<path d="M171.74 77.5587V123.173C171.74 133.277 165.239 142.025 155.551 144.923L108.558 159.021C106.381 159.678 104.165 160 101.972 160C97.1703 160 92.4711 158.465 88.4765 155.489C86.6514 154.126 85.0696 152.552 83.7693 150.789C82.1875 148.675 81.0046 146.318 80.2606 143.787C80.2526 143.787 80.2451 143.787 80.2371 143.795L80.2526 143.779C79.6499 141.704 79.3208 139.519 79.3208 137.271V91.6567C79.3208 86.973 80.7149 82.5795 83.1747 78.9294C85.6338 75.2793 89.1581 72.3662 93.4188 70.635C94.1004 70.3609 94.7975 70.1097 95.5105 69.899L101.259 68.1759L142.504 55.8011C149.45 53.7173 156.766 55.0021 162.585 59.3333C168.405 63.6644 171.741 70.306 171.741 77.5587H171.74Z" fill="#FBFBFB"/>
<path d="M119.785 125V95.9091H131.263C133.459 95.9091 135.334 96.3021 136.888 97.0881C138.45 97.8646 139.638 98.9678 140.453 100.398C141.277 101.818 141.689 103.49 141.689 105.412C141.689 107.344 141.272 109.006 140.439 110.398C139.605 111.78 138.398 112.841 136.816 113.58C135.245 114.318 133.341 114.688 131.106 114.688H123.422V109.744H130.112C131.286 109.744 132.262 109.583 133.038 109.261C133.815 108.939 134.392 108.456 134.771 107.812C135.159 107.169 135.353 106.368 135.353 105.412C135.353 104.446 135.159 103.632 134.771 102.969C134.392 102.306 133.81 101.804 133.024 101.463C132.247 101.113 131.267 100.938 130.084 100.938H125.936V125H119.785ZM135.495 111.761L142.726 125H135.936L128.862 111.761H135.495Z" fill="#1DA1F2"/>
</svg>
