<svg xmlns="http://www.w3.org/2000/svg" width="218" height="169" viewBox="0 0 218 169" fill="none">
  <g clip-path="url(#clip0_64_321)">
    <path d="M209.364 0.000270562H143.925C140.767 0.000122067 137.703 1.0316 135.237 2.92515C132.771 4.81869 131.049 7.46161 130.354 10.4194L97.2899 151.24C96.9292 152.776 96.9229 154.369 97.2713 155.907C97.6196 157.446 98.3143 158.893 99.3067 160.146C100.299 161.4 101.565 162.43 103.016 163.164C104.466 163.898 106.067 164.319 107.704 164.396L174.976 167.578C178.578 167.749 182.122 166.655 184.946 164.501C187.77 162.347 189.681 159.28 190.323 155.872L209.081 56.3113L210.476 56.6941L214.066 37.8234L212.63 37.4787L217.865 9.68749C218.09 8.4971 218.038 7.27384 217.713 6.10493C217.389 4.93601 216.8 3.85023 215.988 2.92499C215.176 1.99975 214.162 1.25785 213.018 0.752169C211.873 0.246488 210.626 -0.010513 209.366 -0.000512404L209.364 0.000270562Z" fill="#3F3D56"/>
    <path d="M152.539 3.03589H144.901C142.708 3.03591 140.58 3.75627 138.872 5.07738C137.163 6.39849 135.976 8.24089 135.509 10.2988L103.771 149.97C103.588 150.774 103.588 151.607 103.771 152.411C103.954 153.215 104.316 153.972 104.831 154.629C105.347 155.287 106.004 155.83 106.758 156.221C107.513 156.612 108.346 156.843 109.201 156.896L176.255 161.116C178.146 161.235 180.017 160.681 181.511 159.56C183.004 158.439 184.016 156.829 184.352 155.038L211.434 10.674C211.609 9.73963 211.569 8.77971 211.315 7.86198C211.062 6.94426 210.602 6.09109 209.968 5.36268C209.334 4.63427 208.541 4.04837 207.645 3.64633C206.749 3.24429 205.773 3.03591 204.784 3.03589H197.538C196.837 3.03587 196.155 3.25785 195.598 3.66746C195.041 4.07707 194.641 4.65147 194.458 5.30173C194.297 5.87599 193.944 6.38325 193.452 6.74492C192.96 7.10659 192.358 7.30249 191.739 7.30226H157.339C156.126 7.30223 154.958 6.86282 154.068 6.07187C153.179 5.28091 152.632 4.19669 152.539 3.03589Z" fill="white"/>
    <path d="M189.606 100.678C189.737 100.682 189.864 100.641 189.966 100.563C190.068 100.484 190.137 100.373 190.16 100.25L204.988 21.6711C205.003 21.5964 205 21.5197 204.98 21.4461C204.961 21.3726 204.925 21.3039 204.875 21.2449C204.826 21.1864 204.764 21.1389 204.693 21.106C204.623 21.0731 204.545 21.0556 204.467 21.0545L137.004 20.2894H136.998C136.875 20.2904 136.757 20.3313 136.661 20.4054C136.566 20.4795 136.5 20.5824 136.474 20.6973L118.993 96.7259C118.976 96.8001 118.976 96.877 118.993 96.9513C119.009 97.0255 119.043 97.0955 119.09 97.1563C119.137 97.2166 119.197 97.2662 119.267 97.3017C119.336 97.3371 119.412 97.3574 119.491 97.3613L189.606 100.678Z" fill="#E6E6E6"/>
    <path d="M131.062 105.758C131.001 105.759 130.941 105.779 130.893 105.815C130.845 105.852 130.811 105.903 130.797 105.96L130.166 108.56C130.157 108.597 130.156 108.635 130.164 108.672C130.172 108.709 130.188 108.744 130.211 108.774C130.234 108.805 130.264 108.83 130.299 108.848C130.333 108.866 130.371 108.877 130.41 108.88L166.1 111.316C166.166 111.32 166.232 111.301 166.285 111.262C166.337 111.223 166.373 111.167 166.387 111.105L166.994 108.097C167.002 108.06 167.001 108.023 166.992 107.987C166.983 107.951 166.966 107.917 166.942 107.887C166.918 107.858 166.888 107.834 166.854 107.816C166.82 107.799 166.782 107.789 166.743 107.787L131.079 105.759L131.062 105.758Z" fill="#E6E6E6"/>
    <path d="M174.423 120.973C174.488 120.977 174.552 120.96 174.604 120.924C174.656 120.888 174.694 120.835 174.709 120.775L175.482 117.76C175.492 117.723 175.493 117.685 175.485 117.648C175.478 117.61 175.462 117.575 175.438 117.544C175.415 117.513 175.385 117.488 175.35 117.469C175.316 117.451 175.277 117.44 175.238 117.437L129.659 114.377C129.598 114.372 129.536 114.388 129.485 114.422C129.434 114.456 129.397 114.506 129.38 114.563L128.576 117.168C128.564 117.205 128.562 117.244 128.568 117.282C128.574 117.321 128.59 117.357 128.612 117.389C128.635 117.421 128.665 117.448 128.7 117.467C128.735 117.487 128.774 117.499 128.815 117.502L174.423 120.973Z" fill="#E6E6E6"/>
    <path d="M171.975 130.634C172.04 130.639 172.104 130.622 172.156 130.586C172.209 130.55 172.246 130.497 172.261 130.437L173.035 127.422C173.044 127.385 173.045 127.347 173.038 127.31C173.03 127.272 173.014 127.237 172.991 127.206C172.967 127.175 172.937 127.15 172.903 127.131C172.868 127.113 172.83 127.102 172.79 127.099L127.212 124.039C127.15 124.034 127.088 124.05 127.037 124.084C126.986 124.118 126.949 124.167 126.932 124.225L126.128 126.83C126.117 126.867 126.114 126.906 126.12 126.944C126.127 126.983 126.142 127.019 126.165 127.051C126.188 127.083 126.218 127.11 126.253 127.129C126.288 127.149 126.327 127.161 126.367 127.164L171.975 130.634Z" fill="#E6E6E6"/>
    <path d="M92.9515 164.649C92.9515 166.834 72.1177 167.067 46.4758 168.606C20.8567 170.143 0 166.834 0 164.649C0 162.464 20.9541 158.067 46.4758 160.692C72.1177 163.33 92.9515 162.464 92.9515 164.649Z" fill="#E6E6E6"/>
    <path d="M150.984 147.152C151.049 147.158 151.114 147.142 151.167 147.105C151.22 147.069 151.258 147.016 151.273 146.955L152.909 140.674C152.918 140.638 152.919 140.599 152.912 140.562C152.905 140.525 152.889 140.49 152.866 140.459C152.843 140.428 152.814 140.402 152.779 140.384C152.745 140.365 152.707 140.354 152.668 140.35L124.678 138.09C124.613 138.086 124.548 138.104 124.495 138.141C124.442 138.178 124.405 138.232 124.39 138.293L122.995 144.321C122.987 144.357 122.986 144.395 122.994 144.431C123.002 144.467 123.018 144.502 123.04 144.532C123.063 144.562 123.092 144.587 123.126 144.605C123.159 144.623 123.197 144.634 123.235 144.638L150.984 147.152Z" fill="#1DA1F2"/>
    <path d="M37.9687 121.559C38.3212 121.327 38.6164 121.024 38.8335 120.67C39.0506 120.317 39.1844 119.922 39.2254 119.514C39.2665 119.106 39.2137 118.694 39.0709 118.307C38.9281 117.92 38.6988 117.569 38.399 117.276L39.5323 92.9863L33.7625 93.608L34.0979 117.367C33.6194 117.883 33.3547 118.549 33.3539 119.24C33.3531 119.931 33.6164 120.598 34.0937 121.114C34.571 121.631 35.2293 121.962 35.9436 122.043C36.6579 122.125 37.3786 121.952 37.969 121.558L37.9687 121.559Z" fill="#A0616A"/>
    <path d="M48.4946 162.676L51.7785 163.231L55.0242 151.333L50.7214 150.514L48.4946 162.676Z" fill="#A0616A"/>
    <path d="M57.5766 167.227L47.2558 165.485L47.9568 161.657L54.29 162.726C55.3476 162.904 56.288 163.479 56.9043 164.323C57.5207 165.167 57.7625 166.212 57.5765 167.228L57.5766 167.227Z" fill="#2F2E41"/>
    <path d="M39.4811 164.255H42.8154L44.4015 151.906H39.4805L39.4811 164.255Z" fill="#A0616A"/>
    <path d="M49.2446 167.228L38.7655 167.228L38.7653 163.341L45.1956 163.341C46.2694 163.341 47.2992 163.75 48.0586 164.479C48.8179 165.208 49.2445 166.197 49.2446 167.228Z" fill="#2F2E41"/>
    <path d="M53.3918 159.829C53.3398 159.829 53.2879 159.826 53.2363 159.82L49.3118 159.51C49.1332 159.489 48.9606 159.435 48.8047 159.348C48.6488 159.262 48.5127 159.147 48.4048 159.008C48.2969 158.87 48.2193 158.712 48.1769 158.545C48.1344 158.377 48.128 158.202 48.1579 158.032L52.0538 139.575L49.6061 127.178C49.5861 127.077 49.5289 126.987 49.445 126.923C49.3611 126.86 49.2561 126.828 49.1494 126.833C49.0428 126.838 48.9416 126.88 48.8646 126.951C48.7877 127.022 48.7401 127.117 48.7306 127.22L45.1241 158.719C45.0905 159.051 44.9239 159.357 44.6595 159.573C44.3952 159.79 44.0537 159.899 43.7072 159.878L40.0098 159.746C39.6858 159.724 39.3815 159.588 39.1542 159.366C38.9269 159.143 38.7924 158.848 38.7762 158.536L39.0715 120.472L58.2399 118.171L59.579 138.028L59.5736 138.049L54.6807 158.855C54.6103 159.132 54.445 159.379 54.2114 159.555C53.9777 159.732 53.6891 159.828 53.3918 159.829Z" fill="#2F2E41"/>
    <path d="M45.3928 77.247C49.0819 77.247 52.0725 74.3755 52.0725 70.8333C52.0725 67.2912 49.0819 64.4197 45.3928 64.4197C41.7037 64.4197 38.7131 67.2912 38.7131 70.8333C38.7131 74.3755 41.7037 77.247 45.3928 77.247Z" fill="#A0616A"/>
    <path d="M51.6866 123.368C50.6419 123.374 49.6173 123.093 48.7339 122.557C45.4975 120.616 41.823 121.387 39.9203 122.02C39.7315 122.084 39.5302 122.105 39.3314 122.084C39.1326 122.062 38.9415 121.997 38.7724 121.895C38.6052 121.794 38.464 121.658 38.3592 121.497C38.2545 121.337 38.189 121.155 38.1675 120.967L34.7079 91.2959C34.128 86.3245 37.2469 81.6505 42.1238 80.1822C42.3071 80.127 42.4934 80.0747 42.6827 80.0255C44.2003 79.6304 45.7897 79.5595 47.3389 79.8177C48.8882 80.0759 50.3597 80.6569 51.6499 81.5199C52.9642 82.3924 54.0633 83.5308 54.8699 84.8551C55.6766 86.1794 56.1711 87.6574 56.3187 89.185L59.2317 119.055C59.2516 119.248 59.2244 119.444 59.1523 119.625C59.0803 119.807 58.9653 119.97 58.8164 120.101C57.7949 121.008 54.8311 123.368 51.6866 123.368Z" fill="#1DA1F2"/>
    <path d="M41.1504 97.6587L33.345 96.8346C33.1229 96.8111 32.9086 96.742 32.7169 96.6319C32.5251 96.5218 32.3603 96.3732 32.2337 96.1964C32.1071 96.0197 32.0217 95.8187 31.9832 95.6074C31.9448 95.396 31.9543 95.1792 32.011 94.9717L33.998 87.7002C34.0565 87.1552 34.227 86.6267 34.4995 86.1453C34.772 85.6639 35.1412 85.2392 35.5857 84.8956C36.0302 84.552 36.5412 84.2964 37.0891 84.1436C37.6371 83.9907 38.2112 83.9437 38.7783 84.0052C39.3453 84.0667 39.894 84.2354 40.3927 84.5017C40.8914 84.768 41.3302 85.1266 41.6837 85.5567C42.0372 85.9868 42.2985 86.4799 42.4523 87.0075C42.6062 87.5351 42.6496 88.0868 42.5801 88.6306L42.8752 96.1186C42.8836 96.333 42.8438 96.5467 42.7585 96.745C42.6732 96.9433 42.5444 97.1217 42.3808 97.2679C42.2172 97.4141 42.0227 97.5248 41.8106 97.5923C41.5984 97.6598 41.3736 97.6827 41.1515 97.6592L41.1504 97.6587Z" fill="#1DA1F2"/>
    <path d="M59.1999 120.519C59.5205 120.248 59.7753 119.913 59.9464 119.537C60.1175 119.161 60.2008 118.754 60.1902 118.344C60.1797 117.934 60.0757 117.531 59.8855 117.164C59.6953 116.797 59.4236 116.474 59.0894 116.218L57.1658 91.9744L51.512 93.1965L54.8299 116.806C54.4196 117.374 54.2405 118.066 54.3264 118.752C54.4123 119.438 54.7573 120.069 55.296 120.527C55.8347 120.985 56.5297 121.237 57.249 121.235C57.9684 121.234 58.6622 120.979 59.1988 120.519H59.1999Z" fill="#A0616A"/>
    <path d="M49.3447 96.1347C49.181 95.9886 49.0522 95.8103 48.9668 95.612C48.8815 95.4137 48.8417 95.2001 48.8502 94.9857L49.1453 87.4978C49.0817 86.9567 49.1297 86.4089 49.2866 85.8856C49.4434 85.3624 49.7061 84.8739 50.0595 84.4481C50.413 84.0223 50.8504 83.6676 51.3466 83.4041C51.8429 83.1406 52.3884 82.9735 52.9519 82.9124C53.5154 82.8513 54.0859 82.8974 54.6309 83.048C55.1758 83.1986 55.6846 83.4508 56.128 83.7902C56.5715 84.1296 56.941 84.5495 57.2154 85.026C57.4898 85.5025 57.6638 86.0263 57.7274 86.5673L59.7144 93.8388C59.7711 94.0464 59.7806 94.2632 59.7422 94.4745C59.7037 94.6859 59.6183 94.8868 59.4917 95.0636C59.3651 95.2404 59.2003 95.3889 59.0086 95.499C58.8168 95.6092 58.6025 95.6783 58.3804 95.7017L50.575 96.5259C50.3529 96.5494 50.128 96.5265 49.9159 96.4589C49.7037 96.3913 49.5092 96.2806 49.3458 96.1342L49.3447 96.1347Z" fill="#1DA1F2"/>
    <path d="M44.9955 77.4886C44.8764 77.4886 44.7578 77.4754 44.6419 77.4492L44.6079 77.4414C38.7351 76.5796 37.437 73.3123 37.1523 71.9484C36.8575 70.5362 37.1931 69.1731 37.9519 68.6435C37.5382 67.3901 37.6046 66.2774 38.1496 65.3371C39.1015 63.6972 41.1632 63.1436 41.4404 63.0747C43.0879 61.9077 45.0591 62.6866 45.4178 62.8446C48.605 61.7126 49.8237 62.6547 50.0434 62.8652C51.468 63.1109 52.3363 63.6392 52.6246 64.4362C53.1661 65.9327 51.4538 67.7944 51.3807 67.873L51.3426 67.9137L48.7916 68.0304C48.5495 68.0415 48.3126 68.1013 48.0961 68.206C47.8797 68.3107 47.6886 68.4579 47.5352 68.6381C47.3818 68.8182 47.2696 69.0273 47.2058 69.2518C47.142 69.4763 47.1281 69.7111 47.1649 69.9411C47.234 70.2378 47.3211 70.5304 47.426 70.8172C47.8612 72.1244 48.1875 73.2413 47.7671 73.6659C47.6717 73.748 47.5541 73.8028 47.4279 73.8238C47.3016 73.8448 47.1718 73.8312 47.0532 73.7847C46.6542 73.6824 46.3836 73.7038 46.2487 73.8487C46.0393 74.073 46.1032 74.6412 46.4287 75.4481C46.5309 75.7033 46.5584 75.9805 46.5082 76.2496C46.4581 76.5188 46.3322 76.7696 46.1443 76.975C46.0027 77.1352 45.8267 77.2642 45.6283 77.3528C45.4299 77.4415 45.2138 77.4878 44.9949 77.4886H44.9955Z" fill="#2F2E41"/>
  </g>
  <defs>
    <clipPath id="clip0_64_321">
      <rect width="218" height="169" fill="white"/>
    </clipPath>
  </defs>
</svg>